<svg width="1024" height="1024" viewBox="0 0 1024 1024" fill="none" xmlns="http://www.w3.org/2000/svg">
<rect width="1024" height="1024" rx="200" fill="#E44F35"/>
<circle cx="512" cy="512" r="318.913" stroke="white" stroke-width="30"/>
<circle cx="512" cy="512" r="252.13" stroke="white" stroke-width="30"/>
<path d="M261.565 512H328.348" stroke="white" stroke-width="30" stroke-linecap="round"/>
<path d="M695.652 512H762.435" stroke="white" stroke-width="30" stroke-linecap="round"/>
<path d="M512 261.565V328.348" stroke="white" stroke-width="30" stroke-linecap="round"/>
<path d="M512 695.652V762.435" stroke="white" stroke-width="30" stroke-linecap="round"/>
<path d="M395.174 395.239L461.905 562.067C461.91 562.08 461.92 562.09 461.933 562.095L628.761 628.826C628.802 628.843 628.843 628.802 628.826 628.761L562.095 461.933C562.09 461.92 562.08 461.91 562.067 461.905L395.239 395.174C395.198 395.157 395.157 395.198 395.174 395.239Z" stroke="white" stroke-width="30" stroke-linecap="round"/>
<path d="M545.391 478.609L478.609 545.391" stroke="white" stroke-width="30" stroke-linecap="round"/>
</svg>
