<svg width="200" height="200" viewBox="0 0 200 200" fill="none" xmlns="http://www.w3.org/2000/svg">
<path d="M175 141.362V42.3313C175 42.013 174.678 41.7953 174.383 41.9135L133.468 58.2793C133.381 58.3144 133.284 58.321 133.192 58.298L66.8078 41.702C66.7161 41.679 66.6194 41.6856 66.5316 41.7207L25.2829 58.2202C25.112 58.2885 25 58.454 25 58.638V157.669C25 157.987 25.3215 158.205 25.6171 158.086L66.5316 141.721C66.6194 141.686 66.7161 141.679 66.8078 141.702L133.192 158.298C133.284 158.321 133.381 158.314 133.468 158.279L174.717 141.78C174.888 141.711 175 141.546 175 141.362Z" stroke="#E44F35" stroke-width="2" stroke-linejoin="round"/>
<path d="M133.333 158.333V58.3333" stroke="#E44F35" stroke-width="2"/>
<path d="M66.6667 141.667L66.6667 41.6667" stroke="#E44F35" stroke-width="2"/>
</svg>
