<svg width="20" height="20" viewBox="0 0 20 20" fill="none" xmlns="http://www.w3.org/2000/svg">
<path d="M1.66666 10C1.66666 6.85731 1.66666 5.28597 2.64297 4.30965C3.61929 3.33334 5.19063 3.33334 8.33333 3.33334H11.6667C14.8094 3.33334 16.3807 3.33334 17.357 4.30965C18.3333 5.28597 18.3333 6.85731 18.3333 10V11.6667C18.3333 14.8094 18.3333 16.3807 17.357 17.357C16.3807 18.3333 14.8094 18.3333 11.6667 18.3333H8.33333C5.19063 18.3333 3.61929 18.3333 2.64297 17.357C1.66666 16.3807 1.66666 14.8094 1.66666 11.6667V10Z" stroke="#868C98" stroke-width="1.5"/>
<path d="M5.83334 3.33334V2.08334" stroke="#868C98" stroke-width="1.5" stroke-linecap="round"/>
<path d="M14.1667 3.33334V2.08334" stroke="#868C98" stroke-width="1.5" stroke-linecap="round"/>
<circle cx="13.75" cy="13.75" r="1.25" fill="#868C98"/>
<path d="M2.08334 7.5H17.9167" stroke="#868C98" stroke-width="1.5" stroke-linecap="round"/>
</svg>
