<svg width="40" height="40" viewBox="0 0 40 40" fill="none" xmlns="http://www.w3.org/2000/svg">
<rect width="40" height="40" rx="8" fill="#FEF3F2"/>
<path d="M29.3103 15.5216L24.4784 10.6897C24.1963 10.4092 23.815 10.2513 23.4172 10.25H16.5828C16.185 10.2513 15.8037 10.4092 15.5216 10.6897L10.6897 15.5216C10.4092 15.8037 10.2513 16.185 10.25 16.5828V23.4172C10.2513 23.815 10.4092 24.1963 10.6897 24.4784L15.5216 29.3103C15.8037 29.5908 16.185 29.7487 16.5828 29.75H23.4172C23.815 29.7487 24.1963 29.5908 24.4784 29.3103L29.3103 24.4784C29.5908 24.1963 29.7487 23.815 29.75 23.4172V16.5828C29.7487 16.185 29.5908 15.8037 29.3103 15.5216ZM19.25 15.5C19.25 15.3011 19.329 15.1103 19.4697 14.9697C19.6103 14.829 19.8011 14.75 20 14.75C20.1989 14.75 20.3897 14.829 20.5303 14.9697C20.671 15.1103 20.75 15.3011 20.75 15.5V20.75C20.75 20.9489 20.671 21.1397 20.5303 21.2803C20.3897 21.421 20.1989 21.5 20 21.5C19.8011 21.5 19.6103 21.421 19.4697 21.2803C19.329 21.1397 19.25 20.9489 19.25 20.75V15.5ZM20 25.25C19.7775 25.25 19.56 25.184 19.375 25.0604C19.19 24.9368 19.0458 24.7611 18.9606 24.5555C18.8755 24.35 18.8532 24.1238 18.8966 23.9055C18.94 23.6873 19.0472 23.4868 19.2045 23.3295C19.3618 23.1722 19.5623 23.065 19.7805 23.0216C19.9988 22.9782 20.225 23.0005 20.4305 23.0856C20.6361 23.1708 20.8118 23.315 20.9354 23.5C21.059 23.685 21.125 23.9025 21.125 24.125C21.125 24.4234 21.0065 24.7095 20.7955 24.9205C20.5845 25.1315 20.2984 25.25 20 25.25Z" fill="#F04438"/>
</svg>
