<svg width="24" height="24" viewBox="0 0 24 24" fill="none" xmlns="http://www.w3.org/2000/svg">
<path d="M21.0369 10.5171L13.5369 3.01712C13.2556 2.73603 12.8742 2.57812 12.4766 2.57812C12.0789 2.57812 11.6975 2.73603 11.4163 3.01712L3.91626 10.5171C3.77629 10.656 3.66535 10.8214 3.58986 11.0036C3.51438 11.1858 3.47587 11.3812 3.47657 11.5784V20.5784C3.47657 20.7773 3.55559 20.968 3.69624 21.1087C3.83689 21.2493 4.02766 21.3284 4.22657 21.3284H20.7266C20.9255 21.3284 21.1163 21.2493 21.2569 21.1087C21.3976 20.968 21.4766 20.7773 21.4766 20.5784V11.5784C21.4773 11.3812 21.4388 11.1858 21.3633 11.0036C21.2878 10.8214 21.1768 10.656 21.0369 10.5171ZM19.9766 19.8284H4.97657V11.5784L12.4766 4.07837L19.9766 11.5784V19.8284Z" fill="#868C98"/>
</svg>
