<svg width="40" height="40" viewBox="0 0 40 40" fill="none" xmlns="http://www.w3.org/2000/svg">
<rect width="40" height="40" rx="8" fill="#E7FAFD"/>
<path d="M20 10.25C18.0716 10.25 16.1866 10.8218 14.5832 11.8932C12.9798 12.9645 11.7301 14.4873 10.9922 16.2688C10.2542 18.0504 10.0611 20.0108 10.4373 21.9021C10.8136 23.7934 11.7422 25.5307 13.1057 26.8943C14.4693 28.2579 16.2066 29.1865 18.0979 29.5627C19.9892 29.9389 21.9496 29.7458 23.7312 29.0078C25.5127 28.2699 27.0355 27.0202 28.1068 25.4168C29.1782 23.8134 29.75 21.9284 29.75 20C29.7473 17.415 28.7192 14.9366 26.8913 13.1087C25.0634 11.2808 22.585 10.2527 20 10.25ZM19.625 14.75C19.8475 14.75 20.065 14.816 20.25 14.9396C20.435 15.0632 20.5792 15.2389 20.6644 15.4445C20.7495 15.65 20.7718 15.8762 20.7284 16.0945C20.685 16.3127 20.5778 16.5132 20.4205 16.6705C20.2632 16.8278 20.0627 16.935 19.8445 16.9784C19.6263 17.0218 19.4001 16.9995 19.1945 16.9144C18.9889 16.8292 18.8132 16.685 18.6896 16.5C18.566 16.315 18.5 16.0975 18.5 15.875C18.5 15.5766 18.6185 15.2905 18.8295 15.0795C19.0405 14.8685 19.3266 14.75 19.625 14.75ZM20.75 25.25C20.3522 25.25 19.9706 25.092 19.6893 24.8107C19.408 24.5294 19.25 24.1478 19.25 23.75V20C19.0511 20 18.8603 19.921 18.7197 19.7803C18.579 19.6397 18.5 19.4489 18.5 19.25C18.5 19.0511 18.579 18.8603 18.7197 18.7197C18.8603 18.579 19.0511 18.5 19.25 18.5C19.6478 18.5 20.0294 18.658 20.3107 18.9393C20.592 19.2206 20.75 19.6022 20.75 20V23.75C20.9489 23.75 21.1397 23.829 21.2803 23.9697C21.421 24.1103 21.5 24.3011 21.5 24.5C21.5 24.6989 21.421 24.8897 21.2803 25.0303C21.1397 25.171 20.9489 25.25 20.75 25.25Z" fill="#50B8C4"/>
</svg>
