<svg width="24" height="24" viewBox="0 0 24 24" fill="none" xmlns="http://www.w3.org/2000/svg">
<path d="M9.02437 3.46872C8.97563 3.27668 9.00487 3.07315 9.1057 2.90259C9.20652 2.73203 9.37074 2.6083 9.56249 2.55841C11.1613 2.14606 12.8387 2.14606 14.4375 2.55841C14.6146 2.60375 14.769 2.71221 14.8718 2.8634C14.9745 3.01459 15.0185 3.19811 14.9955 3.37945C14.9725 3.5608 14.884 3.72749 14.7467 3.84821C14.6094 3.96892 14.4328 4.03533 14.25 4.03497C14.1867 4.03464 14.1237 4.02645 14.0625 4.0106C12.7097 3.6613 11.2903 3.6613 9.93749 4.0106C9.84195 4.03509 9.74252 4.04049 9.64489 4.0265C9.54726 4.01251 9.45335 3.9794 9.36853 3.92906C9.28372 3.87873 9.20966 3.81216 9.1506 3.73317C9.09155 3.65418 9.04865 3.56432 9.02437 3.46872ZM3.12655 10.3125C3.22148 10.3388 3.32066 10.3462 3.41845 10.3343C3.51623 10.3223 3.6107 10.2912 3.69645 10.2427C3.7822 10.1942 3.85756 10.1293 3.91823 10.0517C3.97889 9.97403 4.02366 9.88522 4.04999 9.79029C4.42412 8.44457 5.13379 7.21587 6.11249 6.21935C6.24299 6.07585 6.31282 5.88737 6.30732 5.69349C6.30182 5.4996 6.22143 5.31539 6.08301 5.17952C5.94459 5.04364 5.75891 4.96668 5.56495 4.96478C5.371 4.96289 5.18386 5.03621 5.04281 5.16935C3.88653 6.34678 3.04787 7.79831 2.60531 9.3881C2.57878 9.48302 2.57123 9.58224 2.58307 9.68008C2.59492 9.77792 2.62594 9.87247 2.67434 9.95832C2.72275 10.0442 2.78761 10.1196 2.8652 10.1804C2.9428 10.2412 3.03161 10.286 3.12655 10.3125ZM19.9491 9.79122C20.0023 9.98293 20.1294 10.1456 20.3026 10.2436C20.4758 10.3415 20.6808 10.3666 20.8725 10.3134C21.0642 10.2602 21.2269 10.133 21.3248 9.95984C21.4228 9.78666 21.4479 9.58168 21.3947 9.38997C20.9523 7.8001 20.1136 6.34853 18.9572 5.17122C18.8881 5.10099 18.8059 5.04504 18.7152 5.00658C18.6245 4.96812 18.5271 4.9479 18.4286 4.94708C18.3301 4.94625 18.2324 4.96483 18.1411 5.00176C18.0498 5.03869 17.9666 5.09325 17.8964 5.16232C17.8262 5.23138 17.7702 5.31361 17.7318 5.4043C17.6933 5.49499 17.6731 5.59236 17.6723 5.69086C17.6714 5.78937 17.69 5.88707 17.7269 5.97839C17.7639 6.06971 17.8184 6.15286 17.8875 6.2231C18.8656 7.2192 19.5749 8.44721 19.9491 9.79216V9.79122ZM20.8744 13.6875C20.7794 13.6611 20.6801 13.6538 20.5823 13.6658C20.4845 13.6778 20.39 13.709 20.3042 13.7576C20.2184 13.8062 20.1431 13.8712 20.0825 13.9489C20.0219 14.0267 19.9772 14.1156 19.9509 14.2106C19.6147 15.4209 19.0053 16.538 18.1697 17.4759C17.6229 16.685 16.9286 16.007 16.125 15.479C16.0567 15.4337 15.9755 15.4121 15.8937 15.4173C15.8119 15.4226 15.7341 15.4544 15.6722 15.5081C14.6532 16.3898 13.3508 16.875 12.0033 16.875C10.6558 16.875 9.35336 16.3898 8.33437 15.5081C8.27236 15.4542 8.19437 15.4222 8.1124 15.417C8.03043 15.4117 7.94899 15.4335 7.88062 15.479C7.07181 15.9998 6.37144 16.6722 5.81812 17.459C4.99045 16.5237 4.38674 15.4122 4.05281 14.2087C3.9996 14.017 3.87241 13.8543 3.69923 13.7564C3.52606 13.6585 3.32107 13.6333 3.12937 13.6865C2.93767 13.7397 2.77495 13.8669 2.67702 14.0401C2.57909 14.2133 2.55397 14.4183 2.60718 14.61C3.18041 16.6613 4.40915 18.4686 6.10581 19.7562C7.80248 21.0437 9.87386 21.7407 12.0037 21.7407C14.1336 21.7407 16.205 21.0437 17.9017 19.7562C19.5983 18.4686 20.8271 16.6613 21.4003 14.61C21.4265 14.5149 21.4336 14.4155 21.4213 14.3177C21.409 14.2198 21.3776 14.1253 21.3287 14.0396C21.2799 13.9539 21.2146 13.8787 21.1366 13.8183C21.0587 13.7579 20.9695 13.7134 20.8744 13.6875ZM12 15.375C12.8158 15.375 13.6134 15.133 14.2917 14.6798C14.9701 14.2265 15.4988 13.5823 15.811 12.8285C16.1232 12.0748 16.2049 11.2454 16.0457 10.4452C15.8866 9.64505 15.4937 8.91005 14.9168 8.33316C14.3399 7.75627 13.6049 7.3634 12.8047 7.20423C12.0046 7.04507 11.1752 7.12676 10.4214 7.43897C9.66768 7.75118 9.02344 8.27989 8.57018 8.95825C8.11692 9.6366 7.87499 10.4341 7.87499 11.25C7.87623 12.3436 8.31123 13.3921 9.08455 14.1654C9.85787 14.9387 10.9064 15.3737 12 15.375Z" fill="#fff"/>
</svg>
