<svg width="24" height="24" viewBox="0 0 24 24" fill="none" xmlns="http://www.w3.org/2000/svg">
<path d="M9.02443 3.46872C8.9757 3.27668 9.00494 3.07315 9.10576 2.90259C9.20659 2.73203 9.37081 2.6083 9.56256 2.55841C11.1614 2.14606 12.8387 2.14606 14.4376 2.55841C14.6147 2.60375 14.7691 2.71221 14.8718 2.8634C14.9746 3.01459 15.0186 3.19811 14.9956 3.37945C14.9725 3.5608 14.8841 3.72749 14.7468 3.84821C14.6095 3.96892 14.4329 4.03533 14.2501 4.03497C14.1868 4.03464 14.1238 4.02645 14.0626 4.0106C12.7097 3.6613 11.2904 3.6613 9.93756 4.0106C9.84202 4.03509 9.74259 4.04049 9.64496 4.0265C9.54733 4.01251 9.45342 3.9794 9.3686 3.92906C9.28378 3.87873 9.20973 3.81216 9.15067 3.73317C9.09161 3.65418 9.04872 3.56432 9.02443 3.46872ZM3.12662 10.3125C3.22154 10.3388 3.32073 10.3462 3.41851 10.3343C3.5163 10.3223 3.61076 10.2912 3.69652 10.2427C3.78227 10.1942 3.85763 10.1293 3.91829 10.0517C3.97895 9.97403 4.02373 9.88522 4.05006 9.79028C4.42373 8.44438 5.13346 7.21557 6.11256 6.21935C6.24075 6.07557 6.3087 5.88798 6.30233 5.69545C6.29596 5.50293 6.21576 5.32024 6.07835 5.18525C5.94095 5.05025 5.75687 4.9733 5.56426 4.97034C5.37166 4.96738 5.1853 5.03864 5.04381 5.16935C3.88711 6.34645 3.04838 7.7981 2.60631 9.3881C2.57977 9.48296 2.57218 9.58212 2.58396 9.67991C2.59575 9.7777 2.62668 9.87222 2.675 9.95806C2.72331 10.0439 2.78807 10.1194 2.86556 10.1802C2.94305 10.241 3.03176 10.2859 3.12662 10.3125ZM14.0626 19.9893C12.7097 20.3386 11.2904 20.3386 9.93756 19.9893C9.74616 19.943 9.54422 19.9739 9.37535 20.0752C9.20648 20.1765 9.08423 20.3401 9.03499 20.5308C8.98575 20.7215 9.01348 20.9238 9.11219 21.0942C9.2109 21.2646 9.37266 21.3894 9.56256 21.4415C11.1614 21.8539 12.8387 21.8539 14.4376 21.4415C14.6275 21.3894 14.7892 21.2646 14.8879 21.0942C14.9866 20.9238 15.0144 20.7215 14.9651 20.5308C14.9159 20.3401 14.7936 20.1765 14.6248 20.0752C14.4559 19.9739 14.254 19.943 14.0626 19.9893ZM19.9501 9.79216C20.0033 9.98386 20.1305 10.1466 20.3036 10.2445C20.4768 10.3424 20.6818 10.3676 20.8735 10.3143C21.0652 10.2611 21.2279 10.134 21.3258 9.96078C21.4238 9.7876 21.4489 9.58261 21.3957 9.39091C20.9533 7.80104 20.1146 6.34947 18.9582 5.17216C18.8898 5.09916 18.8076 5.04056 18.7162 4.99982C18.6249 4.95908 18.5263 4.93702 18.4264 4.93494C18.3264 4.93285 18.227 4.95078 18.134 4.98768C18.0411 5.02457 17.9564 5.07969 17.8851 5.14978C17.8138 5.21986 17.7572 5.30351 17.7186 5.3958C17.6801 5.48809 17.6604 5.58715 17.6607 5.68715C17.661 5.78716 17.6813 5.8861 17.7205 5.97814C17.7596 6.07018 17.8167 6.15346 17.8885 6.2231C18.8658 7.21965 19.5747 8.44753 19.9491 9.79216H19.9501ZM21.3976 14.61C20.9014 16.3989 19.9033 18.0082 18.5213 19.2478C18.4358 19.3249 18.3337 19.3814 18.2229 19.4127C18.1121 19.4441 17.9956 19.4495 17.8824 19.4285C17.7692 19.4076 17.6623 19.3609 17.57 19.292C17.4778 19.2231 17.4026 19.1338 17.3504 19.0312C16.8488 18.0431 16.0835 17.2131 15.1391 16.6334C14.1947 16.0536 13.1082 15.7468 12.0001 15.7468C10.8919 15.7468 9.80544 16.0536 8.86105 16.6334C7.91666 17.2131 7.15128 18.0431 6.64975 19.0312C6.59758 19.1338 6.52252 19.2229 6.43038 19.2918C6.33823 19.3607 6.23148 19.4074 6.11838 19.4285C6.00527 19.4495 5.88885 19.4442 5.77811 19.4131C5.66737 19.3819 5.56528 19.3257 5.47975 19.2487C4.09772 18.0085 3.09965 16.3985 2.6035 14.609C2.55041 14.4173 2.57565 14.2124 2.67367 14.0393C2.77169 13.8662 2.93445 13.7392 3.12615 13.6861C3.31785 13.633 3.52279 13.6582 3.69588 13.7562C3.86897 13.8543 3.99604 14.017 4.04912 14.2087C4.38461 15.4208 4.99403 16.5395 5.83037 17.4787C6.66719 16.265 7.84488 15.3264 9.21475 14.7815C8.47969 14.2029 7.94323 13.4096 7.68 12.5119C7.41677 11.6142 7.43986 10.6568 7.74604 9.77281C8.05222 8.88885 8.62628 8.12228 9.38837 7.57974C10.1505 7.0372 11.0627 6.74565 11.9982 6.74565C12.9337 6.74565 13.8459 7.0372 14.608 7.57974C15.3701 8.12228 15.9441 8.88885 16.2503 9.77281C16.5565 10.6568 16.5796 11.6142 16.3164 12.5119C16.0531 13.4096 15.5167 14.2029 14.7816 14.7815C16.1515 15.3264 17.3292 16.265 18.166 17.4787C19.0023 16.5395 19.6118 15.4208 19.9472 14.2087C19.9736 14.1138 20.0184 14.025 20.079 13.9474C20.1397 13.8698 20.2151 13.8049 20.3008 13.7564C20.3866 13.7079 20.481 13.6768 20.5788 13.6648C20.6766 13.6528 20.7758 13.6602 20.8707 13.6865C20.9656 13.7129 21.0544 13.7577 21.132 13.8183C21.2096 13.879 21.2745 13.9544 21.323 14.0401C21.3715 14.1259 21.4026 14.2203 21.4146 14.3181C21.4266 14.4159 21.4192 14.5151 21.3929 14.61H21.3976ZM12.0001 14.25C12.5934 14.25 13.1734 14.074 13.6668 13.7444C14.1601 13.4147 14.5446 12.9462 14.7717 12.398C14.9988 11.8498 15.0582 11.2466 14.9424 10.6647C14.8267 10.0828 14.5409 9.54821 14.1214 9.12865C13.7018 8.70909 13.1673 8.42337 12.5853 8.30762C12.0034 8.19186 11.4002 8.25127 10.852 8.47833C10.3038 8.7054 9.83529 9.08991 9.50565 9.58326C9.17601 10.0766 9.00006 10.6566 9.00006 11.25C9.00006 12.0456 9.31613 12.8087 9.87874 13.3713C10.4413 13.9339 11.2044 14.25 12.0001 14.25Z" fill="#868C98"/>
</svg>
