<svg width="20" height="20" viewBox="0 0 20 20" fill="none" xmlns="http://www.w3.org/2000/svg">
<path fill-rule="evenodd" clip-rule="evenodd" d="M9.58342 2.29175C5.55634 2.29175 2.29175 5.55634 2.29175 9.58342C2.29175 13.6105 5.55634 16.8751 9.58342 16.8751C13.6105 16.8751 16.8751 13.6105 16.8751 9.58342C16.8751 5.55634 13.6105 2.29175 9.58342 2.29175ZM1.04175 9.58342C1.04175 4.86598 4.86598 1.04175 9.58342 1.04175C14.3008 1.04175 18.1251 4.86598 18.1251 9.58342C18.1251 11.7172 17.3427 13.6682 16.0491 15.1653L18.7754 17.8915C19.0194 18.1356 19.0194 18.5313 18.7754 18.7754C18.5313 19.0194 18.1356 19.0194 17.8915 18.7754L15.1653 16.0491C13.6682 17.3427 11.7172 18.1251 9.58342 18.1251C4.86598 18.1251 1.04175 14.3008 1.04175 9.58342Z" fill="#868C98"/>
</svg>
