<svg width="40" height="40" viewBox="0 0 40 40" fill="none" xmlns="http://www.w3.org/2000/svg">
<rect width="40" height="40" rx="8" fill="#EDFAEA"/>
<path d="M29.1744 17.6394C28.8209 17.27 28.4553 16.8894 28.3175 16.5547C28.19 16.2481 28.1825 15.74 28.175 15.2478C28.1609 14.3328 28.1459 13.2959 27.425 12.575C26.7041 11.8541 25.6672 11.8391 24.7522 11.825C24.26 11.8175 23.7519 11.81 23.4453 11.6825C23.1116 11.5447 22.73 11.1791 22.3606 10.8256C21.7137 10.2041 20.9787 9.5 20 9.5C19.0213 9.5 18.2872 10.2041 17.6394 10.8256C17.27 11.1791 16.8894 11.5447 16.5547 11.6825C16.25 11.81 15.74 11.8175 15.2478 11.825C14.3328 11.8391 13.2959 11.8541 12.575 12.575C11.8541 13.2959 11.8437 14.3328 11.825 15.2478C11.8175 15.74 11.81 16.2481 11.6825 16.5547C11.5447 16.8884 11.1791 17.27 10.8256 17.6394C10.2041 18.2862 9.5 19.0213 9.5 20C9.5 20.9787 10.2041 21.7128 10.8256 22.3606C11.1791 22.73 11.5447 23.1106 11.6825 23.4453C11.81 23.7519 11.8175 24.26 11.825 24.7522C11.8391 25.6672 11.8541 26.7041 12.575 27.425C13.2959 28.1459 14.3328 28.1609 15.2478 28.175C15.74 28.1825 16.2481 28.19 16.5547 28.3175C16.8884 28.4553 17.27 28.8209 17.6394 29.1744C18.2862 29.7959 19.0213 30.5 20 30.5C20.9787 30.5 21.7128 29.7959 22.3606 29.1744C22.73 28.8209 23.1106 28.4553 23.4453 28.3175C23.7519 28.19 24.26 28.1825 24.7522 28.175C25.6672 28.1609 26.7041 28.1459 27.425 27.425C28.1459 26.7041 28.1609 25.6672 28.175 24.7522C28.1825 24.26 28.19 23.7519 28.3175 23.4453C28.4553 23.1116 28.8209 22.73 29.1744 22.3606C29.7959 21.7137 30.5 20.9787 30.5 20C30.5 19.0213 29.7959 18.2872 29.1744 17.6394ZM24.2806 18.2806L19.0306 23.5306C18.961 23.6004 18.8783 23.6557 18.7872 23.6934C18.6962 23.7312 18.5986 23.7506 18.5 23.7506C18.4014 23.7506 18.3038 23.7312 18.2128 23.6934C18.1217 23.6557 18.039 23.6004 17.9694 23.5306L15.7194 21.2806C15.5786 21.1399 15.4996 20.949 15.4996 20.75C15.4996 20.551 15.5786 20.3601 15.7194 20.2194C15.8601 20.0786 16.051 19.9996 16.25 19.9996C16.449 19.9996 16.6399 20.0786 16.7806 20.2194L18.5 21.9397L23.2194 17.2194C23.2891 17.1497 23.3718 17.0944 23.4628 17.0567C23.5539 17.019 23.6515 16.9996 23.75 16.9996C23.8485 16.9996 23.9461 17.019 24.0372 17.0567C24.1282 17.0944 24.2109 17.1497 24.2806 17.2194C24.3503 17.2891 24.4056 17.3718 24.4433 17.4628C24.481 17.5539 24.5004 17.6515 24.5004 17.75C24.5004 17.8485 24.481 17.9461 24.4433 18.0372C24.4056 18.1282 24.3503 18.2109 24.2806 18.2806Z" fill="#55A249"/>
</svg>
